PathFileType	4	(X/Y/Z)	D:\TRACE\spot_10-12-23\spot_arm_body_motion_1_5-v60.trc
DataRate	CameraRate	NumFrames	NumMarkers	Units	OrigDataRate	OrigDataStartFrame	OrigNumFrames
100.00	100.00	      42	9	mm	100.00	2626	      7000
Frame#	Time	front left toe			Front right toe			aft left toe			aft right toe			Arm			FL body			FR body			AL Body			AR Body			
		X1	Y1	Z1	X2	Y2	Z2	X3	Y3	Z3	X4	Y4	Z4	X5	Y5	Z5	X6	Y6	Z6	X7	Y7	Z7	X8	Y8	Z8	X9	Y9	Z9	

2626	26.250	-234.91380	3.31040	-452.08423	174.10947	6.58384	-432.62430	-214.46941	19.72856	136.62816	132.81560	27.39785	166.31804	-12.45875	740.60724	-751.98816	-131.71628	580.11115	-495.20609	23.07797	584.74756	-492.14157	-156.02277	564.36115	386.78162	-14.48908	563.09979	392.60843	
2627	26.260	-233.73569	3.20769	-452.30511	174.99457	6.70882	-432.78195	-213.81842	19.79960	136.38869	133.33388	27.48389	166.31981	-12.12978	741.11469	-751.86426	-132.83562	580.82489	-495.49380	21.81937	585.30121	-491.79456	-157.88799	564.48981	386.42194	-16.21564	563.07886	392.69040	
2628	26.270	-233.05760	3.15082	-452.38870	175.65523	7.06837	-432.68060	-213.46628	19.57908	136.38570	134.02872	27.66937	166.45496	-11.72705	741.42694	-751.86615	-133.53870	581.59747	-495.97000	20.02759	585.92334	-492.15451	-159.61642	564.91302	385.87976	-17.92421	563.17395	392.30856	
2629	26.280	-232.29271	3.30339	-452.32138	176.09908	7.22859	-432.62610	-213.01456	19.34851	136.27599	134.70038	27.77179	166.32558	-11.29429	741.68036	-751.96381	-134.43222	582.34894	-496.42117	20.19958	586.58789	-492.85324	-161.08415	565.32642	385.44620	-19.46049	563.60852	391.57965	
2630	26.290	-231.76805	3.67316	-452.27112	176.88919	7.58295	-432.54272	-211.89499	18.93334	136.57935	135.25905	27.88263	166.32732	-11.15952	742.09967	-751.97968	-135.22237	582.98273	-496.93839	18.95528	587.10980	-492.90497	-162.44478	565.42352	385.11783	-20.64581	564.12714	391.51727	
2631	26.300	-231.06230	3.54740	-452.35501	178.02159	8.04438	-432.41693	-211.33452	18.77084	136.68236	135.80853	27.90897	166.44051	-11.40585	742.37512	-752.19946	-135.73810	583.51996	-497.38245	18.52468	587.86865	-493.26141	-163.43697	565.85034	384.38019	-22.06365	564.42896	390.66763	
2632	26.310	-230.28897	3.51833	-452.41565	178.39258	8.08602	-432.82764	-211.30782	19.21040	136.59608	136.66190	27.81631	166.44264	-11.65138	742.58710	-752.52277	-136.20981	583.86841	-497.91171	17.47107	588.27307	-494.01346	-164.45407	565.99939	383.76724	-22.80250	564.66315	390.40335	
2633	26.320	-229.28426	3.34517	-452.25345	178.84845	8.32346	-433.10999	-210.54749	18.75966	136.42863	138.66385	28.65091	166.86829	-12.30605	742.74664	-752.69519	-136.21497	584.14392	-498.53241	16.90970	588.82721	-494.53400	-165.12987	566.09692	383.37604	-23.41255	564.88434	390.27365	
2634	26.330	-228.61891	3.39069	-452.18961	179.96165	8.78650	-432.70865	-209.84911	18.61655	136.56050	139.44360	28.76650	166.77910	-12.76195	742.77307	-752.76007	-137.18733	584.53516	-498.99713	16.28943	589.27045	-495.03290	-165.44969	566.29773	382.81528	-24.26366	565.21484	389.24637	
2635	26.340	-228.37939	3.75052	-452.14627	180.84038	8.98528	-432.52847	-209.16159	18.67163	136.46465	140.19382	28.88162	166.70418	-13.16805	742.78528	-752.91052	-137.57280	584.70392	-499.42596	16.37081	589.65686	-495.73642	-165.76491	566.51410	382.08481	-24.40147	565.51361	388.72800	
2636	26.350	-227.68034	3.70259	-452.04065	181.45457	9.04760	-432.50583	-208.79695	19.11662	136.51434	141.02092	28.91583	166.51276	-13.38185	742.72675	-753.11969	-137.97707	584.86688	-500.14590	15.94128	590.09509	-496.39319	-165.72858	566.77545	381.64935	-24.48070	565.93927	388.05292	
2637	26.360	-226.98274	3.51042	-452.00183	181.95259	9.02939	-432.93152	-207.78267	18.60751	136.55647	141.66663	28.84669	166.38188	-13.43659	742.57184	-753.31073	-138.31850	584.96423	-500.67303	15.34720	590.18201	-497.24835	-165.61916	567.13977	381.21411	-24.29367	566.23096	387.15668	
2638	26.370	-226.09892	3.14574	-452.06171	182.72061	9.37948	-433.11713	-206.87885	18.42218	136.58716	142.40697	28.79107	166.44212	-13.21202	742.45209	-753.42017	-138.52901	585.06616	-501.15219	14.86393	590.26227	-497.37421	-165.30286	567.44263	380.66406	-23.91186	566.76855	386.88947	
2639	26.380	-225.16901	3.34569	-451.98300	183.42514	9.60778	-433.10629	-206.17357	18.62416	136.42929	143.39119	28.76442	166.36929	-12.72734	742.36371	-753.43823	-138.67888	585.35425	-501.81522	14.62605	590.63281	-497.90869	-164.93637	567.81586	379.97482	-23.41630	567.08722	386.27780	
2640	26.390	-224.87720	3.79343	-451.94510	184.25026	9.90129	-432.86722	-204.46107	18.73303	136.64919	144.33269	28.90959	166.36411	-12.23921	742.46179	-753.47919	-138.71413	585.74023	-502.41074	14.40965	591.00226	-498.64963	-164.54044	568.33972	379.47247	-22.89311	567.51099	385.61871	
2641	26.400	-224.02150	3.88523	-451.93945	184.88641	10.00750	-432.95490	-202.98492	18.16671	136.76488	145.14034	28.73587	166.37151	-11.46998	742.63239	-753.55554	-138.64798	586.13422	-502.82568	15.35453	591.52020	-499.67624	-164.07768	568.64325	378.92490	-22.64174	568.04041	384.93649	
2642	26.410	-222.89604	3.74989	-451.87491	185.72237	10.22117	-432.95090	-203.83766	18.74699	136.53445	146.06905	28.76942	166.45296	-10.82562	742.53705	-753.39227	-138.28593	586.40222	-503.50122	15.62844	591.79315	-500.06873	-163.57877	568.86096	378.37552	-22.31445	568.40076	384.26190	
2643	26.420	-222.31375	4.14494	-452.00479	186.89941	10.37176	-432.92783	-202.08459	18.57197	136.55829	146.94073	28.65596	166.35158	-10.33670	742.42645	-753.51654	-137.58769	586.64972	-504.16226	16.00561	592.09802	-500.76697	-163.19580	569.18921	377.70218	-21.89955	568.52563	383.86389	
2644	26.430	-221.35736	4.28688	-452.03336	187.70213	10.49211	-433.01224	-202.06140	18.33865	136.55743	147.59340	28.44983	166.30716	-9.41262	742.40228	-753.34900	-136.84918	586.91956	-504.67651	16.49630	592.20483	-501.12579	-162.92377	569.70703	377.22760	-21.25217	569.04993	383.43958	
2645	26.440	-220.36023	4.52929	-452.03378	188.08813	10.60950	-433.15179	-201.03928	18.17262	136.71815	148.31302	28.44187	166.38261	-8.89893	742.38232	-753.29523	-135.94151	587.44067	-505.27353	17.32689	592.66113	-501.48224	-162.45424	570.06897	376.41281	-20.52949	569.40924	383.12756	
2646	26.450	-219.41986	5.00937	-452.16821	188.98969	10.82414	-432.93741	-199.99892	18.36614	136.51442	149.30972	28.40841	166.51056	-8.43057	742.41748	-753.30914	-134.83115	587.85571	-505.89438	18.67136	593.17963	-502.11215	-161.86159	570.47791	375.85440	-20.06910	569.81006	382.47491	
2647	26.460	-218.48154	5.10167	-452.21664	190.72972	11.17767	-432.50714	-199.12894	18.19229	136.59290	150.19263	28.35962	166.39914	-7.94167	742.36639	-753.32263	-133.75481	588.44604	-506.62973	20.05940	593.62555	-502.74277	-161.31601	570.87250	375.40289	-20.03603	570.08563	381.59818	
2648	26.470	-217.39510	5.43458	-452.21036	191.22240	11.24073	-432.58789	-198.08035	17.99933	136.59445	150.86633	28.26075	166.28481	-7.61485	742.28961	-753.44000	-132.48915	588.76465	-507.16241	21.34696	593.91235	-503.20425	-160.79909	571.19977	374.55606	-19.30920	570.54700	381.28555	
2649	26.480	-216.43497	5.80583	-452.22565	192.00105	11.24525	-432.36746	-197.17885	18.01238	136.45140	151.91527	28.27921	166.40993	-7.57527	742.29749	-753.74371	-130.87622	588.87335	-507.68381	22.72222	593.73779	-503.59930	-160.18661	571.63965	373.95779	-18.67823	570.84601	380.69308	
2650	26.490	-215.26842	6.17073	-452.26746	193.85820	11.37891	-431.88339	-195.95784	17.70691	136.58728	152.78972	28.31407	166.56004	-8.46793	742.23682	-754.58252	-128.80817	588.69489	-508.13031	24.73666	593.42041	-503.93781	-159.60593	572.50574	373.49963	-18.01317	571.21423	380.42053	
2651	26.500	-214.21783	6.39413	-452.37021	194.31224	11.26968	-432.34634	-195.00420	17.88287	136.58490	153.25009	28.22840	166.74896	-10.09819	742.14423	-755.32111	-126.63565	588.75793	-508.65051	26.76278	592.94568	-503.73953	-158.84500	573.22583	373.13849	-17.42435	571.99725	380.15131	
2652	26.510	-213.02847	6.54656	-452.43500	195.57716	11.00660	-432.13644	-194.02977	17.80667	136.56927	153.99191	28.07193	166.77426	-13.81056	741.84344	-756.54877	-124.17674	588.69373	-508.96384	29.71817	592.79053	-504.15045	-158.34091	573.74738	372.52396	-16.88382	572.22162	380.04761	
2653	26.520	-212.14209	7.27568	-452.63141	197.05589	11.17711	-431.54745	-193.26266	17.84209	136.47903	154.98875	28.05168	166.97621	-19.01073	741.74316	-757.37976	-121.63816	588.68311	-509.25497	32.03454	592.51685	-504.14392	-157.49466	573.95941	372.25018	-16.08068	572.16559	379.99908	
2654	26.530	-210.82155	7.66412	-452.60544	197.78671	11.00743	-431.49353	-192.04514	16.93521	136.56099	155.79388	27.92282	167.19760	-25.35532	741.79224	-758.20471	-119.22352	588.57520	-509.39908	34.51126	592.38281	-504.26318	-156.46275	574.03595	372.03577	-15.22637	572.17883	379.94638	
2655	26.540	-209.73309	7.92193	-452.47800	199.25563	11.28899	-431.07138	-190.66350	16.96917	136.60890	156.85338	27.76104	167.17064	-31.54018	741.86609	-758.92255	-117.12226	588.61731	-509.66174	36.13910	592.22845	-504.04288	-154.75377	574.19214	371.89081	-13.43190	572.37091	379.92560	
2656	26.550	-208.81703	8.02533	-452.31873	200.33429	11.78449	-430.91110	-190.13838	17.86018	136.40141	158.15453	27.69341	167.29430	-37.12191	741.82867	-759.24164	-115.95168	588.45758	-509.61978	37.51477	592.00586	-504.06799	-152.25575	574.38562	372.18719	-10.80217	572.36041	380.13599	
2657	26.560	-208.02452	8.19650	-452.10184	200.47614	12.13518	-431.34210	-188.37024	17.40858	136.84085	159.22052	27.39048	167.19051	-40.84170	742.10059	-759.60248	-115.46275	588.22321	-509.38022	38.21366	591.99408	-504.70032	-149.64891	574.65076	372.26096	-8.17703	572.70569	379.69751	
2658	26.570	-207.53287	8.19992	-451.74979	200.58817	12.64709	-431.85165	-187.72537	18.19952	136.78491	160.77762	26.95479	166.89381	-42.83168	742.18127	-759.88275	-115.57631	587.89764	-509.05420	37.89386	591.53204	-504.59406	-146.36880	574.73834	372.67944	-4.81231	572.78564	379.50262	
2659	26.580	-207.18039	8.00175	-451.14453	201.26944	13.36131	-431.91138	-186.35135	18.16603	137.09688	162.14598	26.78158	166.87320	-42.68526	742.00250	-759.90466	-116.23132	587.12738	-508.56079	37.62457	591.44684	-505.21506	-142.63730	574.61426	373.32858	-1.03842	572.96362	379.51157	
2660	26.590	-206.94986	7.57009	-450.45474	202.45415	13.87305	-431.93802	-185.50410	18.56310	137.40060	163.89340	26.78362	166.70013	-40.26427	741.81415	-759.98358	-116.91840	586.41132	-508.19754	36.76563	591.03577	-505.71466	-138.99464	574.80560	373.88623	2.94925	573.19934	379.65494	
2661	26.600	-206.75011	7.24500	-449.92450	203.21301	13.72955	-432.32486	-184.09381	18.86296	137.41614	164.86145	26.49802	166.41611	-36.89861	741.68030	-759.95825	-117.68658	585.56183	-507.73468	35.66193	590.17499	-505.82675	-135.65605	574.92944	374.23639	6.42736	573.84241	379.08429	
2662	26.610	-206.37749	7.17738	-449.52048	203.79092	13.90137	-432.44318	-183.16235	19.54813	137.42018	165.84216	26.34433	166.34546	-32.62332	741.59180	-759.95068	-118.02807	585.05994	-507.40894	35.33167	589.43500	-505.82455	-131.50508	575.61578	374.52844	9.48563	574.38708	378.95978	
2663	26.620	-205.74579	7.41389	-449.36304	203.17574	13.74458	-434.02414	-182.01775	19.57346	137.88464	167.03218	26.16702	166.42442	-28.16283	741.29852	-759.69403	-117.94247	584.53577	-506.94174	35.91655	589.10809	-506.25897	-128.91206	575.98560	375.10056	12.13812	574.51831	379.23236	
2664	26.630	-204.74118	7.74738	-449.19846	206.50500	15.13052	-432.16223	-180.86494	19.42587	138.28072	168.11940	26.10795	166.39146	-23.85581	741.42462	-759.49890	-117.09206	584.48895	-506.57596	37.57111	588.77295	-505.64328	-127.03621	576.12701	375.46494	14.02789	574.41138	379.35843	
2665	26.640	-202.95752	8.22568	-449.36072	206.77583	15.16080	-432.10995	-179.83417	18.99660	138.24045	169.06061	25.82341	166.45778	-20.30632	741.35028	-759.08392	-115.28627	584.67267	-506.17026	38.27925	588.65527	-505.03513	-125.88538	575.83191	375.78421	15.07202	573.83649	379.82208	
2666	26.650	-201.02036	9.37754	-449.72971	207.44400	15.30999	-431.86523	-179.04010	18.17904	138.39021	169.96680	25.73823	166.91830	-18.24708	741.51154	-758.70953	-112.55729	585.44153	-505.95456	41.82217	588.98004	-504.33566	-125.43177	575.25104	376.05255	15.67976	573.01758	380.16211	
2667	26.660	-199.63977	10.31336	-449.93570	209.53830	15.71103	-430.77570	-178.24640	17.98152	138.24149	170.55922	25.73902	167.31999	-16.94466	741.89105	-758.14380	-109.22970	585.96661	-505.65375	45.53608	589.22980	-503.94980	-126.51188	574.68964	376.45554	15.82321	572.75775	381.43295	
